<svg xmlns="http://www.w3.org/2000/svg" xmlns:xlink="http://www.w3.org/1999/xlink" 
xmlns:inkscape="http://www.inkscape.org/namespaces/inkscape" version="1.1" 
width="1700" height="1700" viewBox="0 0 1700 1700">
<rect x="0" y="0" width="1700" height="1700" rx="200" fill="#fff"/>
<rect x="100" y="500" width="100" height="100" rx="10" fill="#c83131"/>
<path d="M110,700
H190
a10,10 0 0,1 10,10
V1050
a50,50 0 0,0 50,50
H750 
A100,100 0 0,0 750,900
H500 
A200,200 0 0,1 500,500
h900 
A200,200 0 0,1 1400,900
h-123
l187,187
A51,51 0 0,0 1500,1100
h40
a10,10 0 0,1 10,10
v80
a10,10 0 0,1 -10,10
h-40
a150,150 0 0,1 -109,-39
l-260,-260
L1060,900
a10,10 0 0,1 -10,-10
v-80 
a10,10 0 0,1 10,-10
h340
A100,100 0 0,0 1400,600
h-900 
A100,100 0 0,0 500,800
H750 
A200,200 0 0,1 750,1200
H250
a150,150 0 0,1 -150,-150
V710
a10,10 0 0,1 10,-10
Z" fill="#778db9"/>
</svg>
